<?xml version="1.0" encoding="utf-8"?>
<!-- Generator: Adobe Illustrator 26.5.0, SVG Export Plug-In . SVG Version: 6.00 Build 0)  -->
<svg version="1.1" id="Capa_2_00000149361744494884471660000012034142478188498843_"
	 xmlns="http://www.w3.org/2000/svg" xmlns:xlink="http://www.w3.org/1999/xlink" x="0px" y="0px" viewBox="0 0 25 20.9"
	 style="enable-background:new 0 0 25 20.9;" xml:space="preserve">
<style type="text/css">
	.st0{fill:#103F91;}
</style>
<g id="Capa_1-2">
	<g>
		<path class="st0" d="M12.6,0c0.6,0.2,1.2,0.4,1.8,0.6c3.3,1.2,6.6,2.3,10,3.5C24.7,4.3,25,4.5,25,4.9c0,0.4-0.3,0.6-0.7,0.8
			C20.6,7,16.8,8.4,13,9.7c-0.3,0.1-0.6,0.1-0.9,0C8.3,8.4,4.5,7,0.7,5.7C0.2,5.5,0,5.2,0,4.9c0-0.4,0.3-0.6,0.7-0.8
			c3.8-1.3,7.5-2.7,11.3-4C12.2,0.1,12.3,0,12.6,0L12.6,0z"/>
		<path class="st0" d="M5.2,8.8C6.3,9.2,7.4,9.6,8.5,10c1,0.4,2.1,0.7,3.1,1.1c0.6,0.2,1.2,0.2,1.8,0c2-0.7,4.1-1.4,6.1-2.2
			c0.1,0,0.2-0.1,0.3-0.1c0,0.5,0,0.9,0,1.3c0,0.5,0,1.1,0,1.6c0,0.7-0.3,1.1-0.8,1.5c-0.8,0.5-1.7,0.8-2.6,1
			c-1.8,0.4-3.7,0.5-5.6,0.4c-1.4-0.1-2.9-0.4-4.2-1c-0.3-0.1-0.6-0.3-0.8-0.5c-0.5-0.3-0.7-0.8-0.7-1.4C5.2,10.8,5.1,9.8,5.2,8.8
			L5.2,8.8z"/>
		<path class="st0" d="M23.2,7.6c0,0.2,0,0.3,0,0.5c0,1.9,0,3.7,0,5.6c0,0.2,0.1,0.4,0.2,0.5c0.7,0.6,0.7,1.6,0,2.2
			c-0.1,0.1-0.2,0.3-0.2,0.5c0,1,0,2.1,0,3.2c0,0.5-0.2,0.7-0.6,0.8c-0.5,0.1-0.9-0.2-0.9-0.7c0-1.1,0-2.2,0-3.3
			c0-0.1-0.1-0.3-0.2-0.5c-0.7-0.6-0.7-1.6,0-2.3c0.1-0.1,0.2-0.3,0.2-0.5c0-1.7,0-3.4,0-5.1c0-0.3,0-0.4,0.4-0.5
			C22.5,7.9,22.8,7.7,23.2,7.6L23.2,7.6z"/>
	</g>
</g>
</svg>
