<svg width="15" height="15" viewBox="0 0 15 15" fill="none" xmlns="http://www.w3.org/2000/svg">
<path d="M7.5 1.25C4.05 1.25 1.25 4.05 1.25 7.5C1.25 10.95 4.05 13.75 7.5 13.75C10.95 13.75 13.75 10.95 13.75 7.5C13.75 4.05 10.95 1.25 7.5 1.25ZM10.0188 7.83125L8.14375 9.70625C8.05 9.8 7.93125 9.84375 7.8125 9.84375C7.69375 9.84375 7.575 9.8 7.48125 9.70625C7.39407 9.61804 7.34519 9.49902 7.34519 9.375C7.34519 9.25098 7.39407 9.13196 7.48125 9.04375L8.55625 7.96875H5.3125C5.05625 7.96875 4.84375 7.75625 4.84375 7.5C4.84375 7.24375 5.05625 7.03125 5.3125 7.03125H8.55625L7.48125 5.95625C7.39407 5.86804 7.34519 5.74902 7.34519 5.625C7.34519 5.50098 7.39407 5.38196 7.48125 5.29375C7.6625 5.1125 7.9625 5.1125 8.14375 5.29375L10.0188 7.16875C10.2 7.35 10.2 7.65 10.0188 7.83125Z" fill="#0D3274"/>
</svg>
