<svg width="16" height="20" viewBox="0 0 16 20" fill="none" xmlns="http://www.w3.org/2000/svg">
                    <path d="M6.97845 19.5965C1.09253 11.3684 0 10.5239 0 7.5C0 3.35785 3.48222 0 7.77778 0C12.0733 0 15.5556 3.35785 15.5556 7.5C15.5556 10.5239 14.463 11.3684 8.57711 19.5965C8.19085 20.1345 7.36466 20.1345 6.97845 19.5965ZM7.77778 10.625C9.5676 10.625 11.0185 9.2259 11.0185 7.5C11.0185 5.7741 9.5676 4.375 7.77778 4.375C5.98796 4.375 4.53704 5.7741 4.53704 7.5C4.53704 9.2259 5.98796 10.625 7.77778 10.625Z" fill="white"/>
                    </svg> 