<svg width="20" height="18" viewBox="0 0 20 18" fill="none" xmlns="http://www.w3.org/2000/svg">
                    <path d="M5.55556 15.3125C4.66667 15.3125 3.77778 14.5469 3.33333 14.2188C1.11111 12.6875 0.444444 12.1406 0 11.8125V16.4062C0 17.0102 0.497569 17.5 1.11111 17.5H10C10.6135 17.5 11.1111 17.0102 11.1111 16.4062V11.8125C10.6667 12.1406 10 12.6875 7.77778 14.2188C7.33333 14.5469 6.44444 15.3125 5.55556 15.3125ZM10 8.75H1.11111C0.497569 8.75 0 9.23979 0 9.84375V10.3906C0.888889 11.0469 0.777778 11.0469 4 13.3437C4.33333 13.5625 5 14.2188 5.55556 14.2188C6.11111 14.2188 6.77778 13.5625 7.11111 13.4531C10.3333 11.1563 10.2222 11.1563 11.1111 10.5V9.84375C11.1111 9.23979 10.6135 8.75 10 8.75ZM18.8889 5.46875H7.77778C7.16424 5.46875 6.66667 5.95854 6.66667 6.5625V7.65625H10C11.1531 7.65625 12.1038 8.5251 12.2122 9.63252L12.2222 9.625V14.2188H18.8889C19.5024 14.2188 20 13.729 20 13.125V6.5625C20 5.95854 19.5024 5.46875 18.8889 5.46875ZM17.7778 9.84375H15.5556V7.65625H17.7778V9.84375ZM5.55556 6.5625C5.55556 5.3563 6.55243 4.375 7.77778 4.375H15.5556V1.09375C15.5556 0.489795 15.058 0 14.4444 0H3.33333C2.71979 0 2.22222 0.489795 2.22222 1.09375V7.65625H5.55556V6.5625Z" fill="white"/>
                    </svg>