<?xml version="1.0" encoding="utf-8"?>
<!-- Generator: Adobe Illustrator 26.5.0, SVG Export Plug-In . SVG Version: 6.00 Build 0)  -->
<svg version="1.1" id="Capa_2_00000170986038945136576810000008910802660271381643_"
	 xmlns="http://www.w3.org/2000/svg" xmlns:xlink="http://www.w3.org/1999/xlink" x="0px" y="0px" viewBox="0 0 25 25"
	 style="enable-background:new 0 0 25 25;" xml:space="preserve">
<style type="text/css">
	.st0{fill:#103F91;}
</style>
<path class="st0" d="M15.8,17.4c-0.6-0.5-1-1-1.5-1.5c-2.3,1.6-4.9,2.2-7.7,1.5c-2.1-0.5-3.8-1.7-5-3.5c-2.6-3.6-2-8.6,1.3-11.6
	c3.2-3,8.3-3.1,11.6-0.3c3.4,2.9,4.4,8.1,1.4,12.3c0.5,0.4,1,0.9,1.5,1.4c0.1-0.1,0.4-0.4,0.6-0.6c0.5-0.5,1-0.5,1.5,0
	c1.7,1.7,3.4,3.4,5.2,5.2c0.5,0.5,0.5,1,0,1.5c-0.9,1-1.9,1.9-2.8,2.8c-0.5,0.5-1,0.5-1.6,0c-1.7-1.7-3.4-3.4-5.1-5.1
	c-0.5-0.5-0.5-1,0-1.6C15.4,17.7,15.6,17.5,15.8,17.4z M8.8,2.1c-3.8,0-6.7,3-6.7,6.7c0,3.8,3,6.7,6.7,6.8c3.8,0,6.8-3,6.8-6.8
	C15.6,5,12.6,2.1,8.8,2.1z"/>
</svg>
