<?xml version="1.0" encoding="utf-8"?>
<!-- Generator: Adobe Illustrator 26.5.0, SVG Export Plug-In . SVG Version: 6.00 Build 0)  -->
<svg version="1.1" id="Capa_2_00000170986038945136576810000008910802660271381643_"
	 xmlns="http://www.w3.org/2000/svg" xmlns:xlink="http://www.w3.org/1999/xlink" x="0px" y="0px" viewBox="0 0 25 19.1"
	 style="enable-background:new 0 0 25 19.1;" xml:space="preserve">
<style type="text/css">
	.st0{fill:#103F91;}
</style>
<g id="Capa_1-2">
	<g>
		<path class="st0" d="M11.8,18.1c-1.4-1.4-3.1-2.2-4.9-2.6C5.9,15.3,5,15.3,4,15.2c-0.8-0.1-1.1-0.4-1.1-1.1c0-4.4,0-8.7,0-13
			C2.9,0.3,3.3,0,4,0C6.1,0,8,0.4,9.8,1.6c0.8,0.5,1.4,1.2,1.9,1.9c0.1,0.2,0.2,0.4,0.2,0.6c0,4.6,0,9.1,0,13.7
			C11.8,17.9,11.8,18,11.8,18.1L11.8,18.1z"/>
		<path class="st0" d="M13.2,18c0-0.1,0-0.3,0-0.4c0-4.3,0-8.6,0-13c0-0.7,0.2-1.2,0.7-1.7C15.2,1.3,17,0.5,19,0.2
			C19.7,0.1,20.3,0,21,0c0.7,0,1,0.3,1,1c0,0.7,0,1.4,0,2.1c0,3.6,0,7.2,0,10.9c0,0.9-0.2,1.2-1.2,1.2c-1.9,0.1-3.8,0.4-5.5,1.3
			C14.6,17,13.9,17.5,13.2,18L13.2,18z"/>
		<path class="st0" d="M10.5,18.8c-0.9-0.1-1.6-0.3-2.4-0.3c-1.3,0-2.7,0-4,0.1c-1,0.1-2,0.3-3,0.5c-0.7,0.1-1.1-0.3-1.1-1
			c0-4.7,0-9.3,0-14c0-0.6,0.3-1,1-1c0.2,0,0.3,0,0.6,0c0,0.2,0,0.3,0,0.5c0,3.5,0,7,0,10.4c0,1.6,1.1,2.6,2.6,2.6
			c2,0,3.8,0.4,5.5,1.5C9.9,18.3,10.2,18.5,10.5,18.8L10.5,18.8z"/>
		<path class="st0" d="M14.5,18.8c0.8-0.7,1.6-1.2,2.5-1.5c1.2-0.5,2.6-0.7,3.9-0.7c1.6,0,2.5-0.9,2.5-2.6c0-3.5,0-7,0-10.4V3.1
			c1-0.3,1.6,0.2,1.6,1.1c0,4.6,0,9.1,0,13.7c0,0.9-0.4,1.3-1.3,1.1c-2.1-0.5-4.3-0.7-6.4-0.5C16.3,18.5,15.5,18.7,14.5,18.8
			L14.5,18.8z"/>
	</g>
</g>
</svg>
