<svg width="30" height="30" viewBox="0 0 30 30" fill="none" xmlns="http://www.w3.org/2000/svg">
<g clip-path="url(#clip0_1461_65)">
<path d="M15 30C23.2843 30 30 23.2843 30 15C30 6.71573 23.2843 0 15 0C6.71573 0 0 6.71573 0 15C0 23.2843 6.71573 30 15 30Z" fill="white"/>
<path d="M19.8 16.2996L20.4 12.5996H16.8V10.0996C16.8 9.09961 17.3 8.09961 18.9 8.09961H20.5V4.89961C20.5 4.89961 19 4.59961 17.6 4.59961C14.6 4.59961 12.7 6.39961 12.7 9.59961V12.3996H9.5V16.0996H12.8V25.1996H16.9V16.1996H19.8V16.2996Z" fill="#8D9D83"/>
</g>
<defs>
<clipPath id="clip0_1461_65">
<rect width="30" height="30" fill="white"/>
</clipPath>
</defs>
</svg>
