<svg width="30" height="30" viewBox="0 0 30 30" fill="none" xmlns="http://www.w3.org/2000/svg">
<g clip-path="url(#clip0_1461_68)">
<path d="M15 30C23.2843 30 30 23.2843 30 15C30 6.71573 23.2843 0 15 0C6.71573 0 0 6.71573 0 15C0 23.2843 6.71573 30 15 30Z" fill="white"/>
<path d="M15 10.2996C12.3 10.2996 10.3 12.3996 10.3 14.9996C10.3 17.5996 12.4 19.6996 15 19.6996C17.6 19.6996 19.7 17.5996 19.7 14.9996C19.7 12.3996 17.7 10.2996 15 10.2996ZM15 18.0996C13.3 18.0996 11.9 16.7996 11.9 14.9996C11.9 13.1996 13.2 11.8996 15 11.8996C16.8 11.8996 18.1 13.1996 18.1 14.9996C18.1 16.7996 16.7 18.0996 15 18.0996ZM21 10.0996C21 10.6996 20.5 11.1996 19.9 11.1996C19.3 11.1996 18.8 10.6996 18.8 10.0996C18.8 9.49961 19.3 8.99961 19.9 8.99961C20.5 8.99961 21 9.49961 21 10.0996ZM24.1 11.1996C24 9.69961 23.7 8.39961 22.6 7.29961C21.5 6.19961 20.2 5.89961 18.7 5.79961C17.2 5.69961 12.7 5.69961 11.1 5.79961C9.69998 5.89961 8.39998 6.19961 7.29998 7.29961C6.19998 8.39961 5.89998 9.69961 5.79998 11.1996C5.69998 12.6996 5.69998 17.1996 5.79998 18.7996C5.89998 20.2996 6.19998 21.5996 7.29998 22.6996C8.39998 23.7996 9.69998 24.0996 11.2 24.1996C12.7 24.2996 17.2 24.2996 18.8 24.1996C20.3 24.0996 21.6 23.7996 22.7 22.6996C23.8 21.5996 24.1 20.2996 24.2 18.7996C24.2 17.2996 24.2 12.6996 24.1 11.1996ZM22.2 20.3996C21.9 21.1996 21.3 21.7996 20.4 22.1996C19.1 22.6996 16.3 22.5996 15 22.5996C13.7 22.5996 10.7 22.6996 9.59998 22.1996C8.79998 21.8996 8.19998 21.2996 7.79998 20.3996C7.29998 19.0996 7.39998 16.2996 7.39998 14.9996C7.39998 13.6996 7.29998 10.6996 7.79998 9.59961C8.09998 8.79961 8.69998 8.19961 9.59998 7.79961C10.9 7.29961 13.7 7.39961 15 7.39961C16.3 7.39961 19.3 7.29961 20.4 7.79961C21.2 8.09961 21.8 8.69961 22.2 9.59961C22.7 10.8996 22.6 13.6996 22.6 14.9996C22.6 16.2996 22.6 19.2996 22.2 20.3996Z" fill="#8D9D83"/>
</g>
<defs>
<clipPath id="clip0_1461_68">
<rect width="30" height="30" fill="white"/>
</clipPath>
</defs>
</svg>
