<svg width="30" height="30" viewBox="0 0 30 30" fill="none" xmlns="http://www.w3.org/2000/svg">
<g clip-path="url(#clip0_1461_71)">
<path d="M15 30C23.2843 30 30 23.2843 30 15C30 6.71573 23.2843 0 15 0C6.71573 0 0 6.71573 0 15C0 23.2843 6.71573 30 15 30Z" fill="white"/>
<path d="M10.5 22.9H7.3V12.4H10.6C10.5 12.4 10.5 22.9 10.5 22.9ZM8.9 10.9C7.8 10.9 7 10 7 9C7 8.5 7.2 8 7.6 7.7C7.9 7.2 8.3 7 8.9 7C9.4 7 9.9 7.2 10.2 7.6C10.6 8 10.8 8.5 10.8 8.9C10.8 10 10 10.9 8.9 10.9ZM22.8 22.9H19.6V17.7C19.6 16.5 19.6 14.9 17.9 14.9C16.2 14.9 16 16.2 16 17.6V23H12.7V12.4H15.9V13.9H16C16.4 13 17.6 12.2 19.1 12.2C22.4 12.2 23.1 14.4 23.1 17.2L22.8 22.9Z" fill="#8D9D83"/>
</g>
<defs>
<clipPath id="clip0_1461_71">
<rect width="30" height="30" fill="white"/>
</clipPath>
</defs>
</svg>
